<?xml version="1.0" standalone="no"?>
<!DOCTYPE svg PUBLIC "-//W3C//DTD SVG 20010904//EN"
 "http://www.w3.org/TR/2001/REC-SVG-20010904/DTD/svg10.dtd">
<svg version="1.0" xmlns="http://www.w3.org/2000/svg"
 width="260.000000pt" height="260.000000pt" viewBox="0 0 260.000000 260.000000"
 preserveAspectRatio="xMidYMid meet">
<metadata>
Created by potrace 1.14, written by Peter Selinger 2001-2017
</metadata>
<g transform="translate(0.000000,260.000000) scale(0.100000,-0.100000)"
fill="#000000" stroke="none">
<path d="M0 1300 l0 -1300 1300 0 1300 0 0 1300 0 1300 -1300 0 -1300 0 0
-1300z m1332 976 c47 -21 94 -47 104 -57 23 -26 23 -74 -1 -124 -20 -39 -21
-40 -75 -40 -40 0 -64 6 -85 21 -17 12 -73 31 -125 44 -147 34 -254 15 -340
-60 -25 -22 -48 -40 -52 -40 -3 0 -16 -33 -28 -72 -18 -60 -21 -90 -18 -168 3
-61 10 -106 20 -125 21 -39 93 -115 109 -115 7 0 28 -12 47 -26 19 -15 57 -36
86 -46 28 -11 71 -32 96 -47 25 -15 64 -34 88 -41 23 -7 60 -28 81 -47 22 -18
44 -33 50 -33 20 0 127 -115 159 -172 84 -146 84 -355 1 -519 -37 -73 -142
-199 -166 -199 -5 0 -27 -13 -46 -29 -61 -48 -181 -65 -396 -58 -112 4 -194
12 -226 21 -57 17 -120 74 -131 119 -9 38 12 98 42 120 24 18 26 18 69 -2 112
-53 343 -77 477 -50 74 15 161 84 203 160 27 51 29 61 30 169 0 107 -2 119
-28 167 -16 32 -43 63 -66 79 -22 14 -42 32 -44 39 -3 7 -37 25 -76 40 -38 14
-80 34 -93 44 -13 10 -48 26 -78 36 -30 9 -66 28 -80 40 -14 13 -45 33 -70 45
-41 20 -59 35 -135 107 -13 12 -27 33 -30 45 -4 13 -16 32 -26 44 -40 44 -58
124 -59 260 -1 150 11 201 58 252 6 7 12 19 12 27 0 26 94 127 141 150 26 13
53 30 60 38 8 7 32 21 54 30 34 14 68 17 220 14 l180 -3 87 -38z m670 27 c10
-9 18 -24 18 -33 0 -10 7 -34 16 -55 12 -30 13 -47 4 -93 -16 -82 -30 -125
-48 -144 -23 -27 -85 -23 -119 6 l-28 24 0 137 c0 132 1 137 24 156 30 24 107
26 133 2z m1 -540 c16 -38 23 -1362 7 -1393 -6 -12 -23 -25 -37 -31 -32 -12
-99 5 -108 29 -3 9 -6 325 -5 702 1 776 -5 720 82 720 43 0 50 -3 61 -27z"/>
</g>
</svg>
